# xmcd
#
# Track frame offsets:
#	150
#	12950
#	23954
#	38174
#	54595
#	68717
#	82015
#	96577
#	108422
#	126962
#	146347
#	159277
#	173062
#	186210
#	198419
#	209934
#	223525
#	235444
#
# Disc length: 3284 seconds
#
# Revision: 1
# Processed by: cddbd v1.5.1PL0 Copyright (c) Steve Scherf et al.
# Submitted via: audiograbber 1.80
#
DISCID=090cd212
DTITLE=Judy Garland - Over the Rainbow
DYEAR=1900
DGENRE=
TTITLE0=Over the Rainbow   
TTITLE1=Stompin' at the Savoy
TTITLE2=Swing Mr. Charlie
TTITLE3=Zing! Went the Strings of My Heart
TTITLE4=All God's Chillun Got Rhythm
TTITLE5=Everybody Sing
TTITLE6=(Dear Mr. Gable) You Made Me Love You
TTITLE7=It Never Rains But What It Pours
TTITLE8=In-Between
TTITLE9=Sweet Sixteen
TTITLE10=Embraceable You
TTITLE11=(Can This Be) The End of The Rainbow
TTITLE12=I'm Nobody's Baby
TTITLE13=The Wearing of the Green
TTITLE14=Friendship
TTITLE15=I'm Always Chasing Rainbows
TTITLE16=A Pretty Girl Milking Her Cow
TTITLE17=It's a Great Day for the Irish
EXTD=
EXTT0=
EXTT1=
EXTT2=
EXTT3=
EXTT4=
EXTT5=
EXTT6=
EXTT7=
EXTT8=
EXTT9=
EXTT10=
EXTT11=
EXTT12=
EXTT13=
EXTT14=
EXTT15=
EXTT16=
EXTT17=
PLAYORDER=
